<mxfile host="app.diagrams.net" agent="Mozilla/5.0 (Windows NT 10.0; Win64; x64) AppleWebKit/537.36 (KHTML, like Gecko) Chrome/138.0.0.0 Safari/537.36" version="28.2.5">
  <diagram name="Página-1" id="k44JD73XtM5hKAjyXSp1">
    <mxGraphModel dx="786" dy="1628" grid="1" gridSize="10" guides="1" tooltips="1" connect="1" arrows="1" fold="1" page="1" pageScale="1" pageWidth="827" pageHeight="1169" math="0" shadow="0">
      <root>
        <mxCell id="0" />
        <mxCell id="1" parent="0" />
        <mxCell id="WDk8v4Ak7G_qNKIBwLWD-1" value="Paciente" style="rounded=1;arcSize=10;whiteSpace=wrap;html=1;align=center;" vertex="1" parent="1">
          <mxGeometry x="170" y="120" width="100" height="40" as="geometry" />
        </mxCell>
        <mxCell id="WDk8v4Ak7G_qNKIBwLWD-2" value="Exame" style="rounded=1;arcSize=10;whiteSpace=wrap;html=1;align=center;" vertex="1" parent="1">
          <mxGeometry x="500" y="80" width="100" height="40" as="geometry" />
        </mxCell>
        <mxCell id="WDk8v4Ak7G_qNKIBwLWD-3" value="Médico Externo" style="rounded=1;arcSize=10;whiteSpace=wrap;html=1;align=center;" vertex="1" parent="1">
          <mxGeometry x="850" y="20" width="100" height="40" as="geometry" />
        </mxCell>
        <mxCell id="WDk8v4Ak7G_qNKIBwLWD-4" value="Médico Interno" style="rounded=1;arcSize=10;whiteSpace=wrap;html=1;align=center;" vertex="1" parent="1">
          <mxGeometry x="1230" y="150" width="100" height="40" as="geometry" />
        </mxCell>
        <mxCell id="WDk8v4Ak7G_qNKIBwLWD-6" value="Convênio" style="rounded=1;arcSize=10;whiteSpace=wrap;html=1;align=center;" vertex="1" parent="1">
          <mxGeometry x="140" y="20" width="100" height="40" as="geometry" />
        </mxCell>
        <mxCell id="WDk8v4Ak7G_qNKIBwLWD-7" value="Laudo" style="rounded=1;arcSize=10;whiteSpace=wrap;html=1;align=center;" vertex="1" parent="1">
          <mxGeometry x="850" y="150" width="100" height="40" as="geometry" />
        </mxCell>
        <mxCell id="WDk8v4Ak7G_qNKIBwLWD-9" value="Pertence" style="shape=rhombus;perimeter=rhombusPerimeter;whiteSpace=wrap;html=1;align=center;" vertex="1" parent="1">
          <mxGeometry x="330" y="110" width="120" height="60" as="geometry" />
        </mxCell>
        <mxCell id="WDk8v4Ak7G_qNKIBwLWD-10" value="Solicitado" style="shape=rhombus;perimeter=rhombusPerimeter;whiteSpace=wrap;html=1;align=center;" vertex="1" parent="1">
          <mxGeometry x="660" y="10" width="120" height="60" as="geometry" />
        </mxCell>
        <mxCell id="WDk8v4Ak7G_qNKIBwLWD-13" value="" style="edgeStyle=entityRelationEdgeStyle;fontSize=12;html=1;endArrow=ERzeroToMany;endFill=1;rounded=0;exitX=1;exitY=0.5;exitDx=0;exitDy=0;entryX=0;entryY=0.75;entryDx=0;entryDy=0;" edge="1" parent="1" source="WDk8v4Ak7G_qNKIBwLWD-9" target="WDk8v4Ak7G_qNKIBwLWD-2">
          <mxGeometry width="100" height="100" relative="1" as="geometry">
            <mxPoint x="430" y="220" as="sourcePoint" />
            <mxPoint x="530" y="120" as="targetPoint" />
            <Array as="points">
              <mxPoint x="500" y="100" />
            </Array>
          </mxGeometry>
        </mxCell>
        <mxCell id="WDk8v4Ak7G_qNKIBwLWD-14" value="(0,n)" style="edgeLabel;html=1;align=center;verticalAlign=middle;resizable=0;points=[];" vertex="1" connectable="0" parent="WDk8v4Ak7G_qNKIBwLWD-13">
          <mxGeometry x="-0.3778" y="4" relative="1" as="geometry">
            <mxPoint x="-26" y="-26" as="offset" />
          </mxGeometry>
        </mxCell>
        <mxCell id="WDk8v4Ak7G_qNKIBwLWD-15" value="" style="edgeStyle=entityRelationEdgeStyle;fontSize=12;html=1;endArrow=ERzeroToMany;endFill=1;rounded=0;exitX=0;exitY=0.5;exitDx=0;exitDy=0;entryX=1;entryY=0.25;entryDx=0;entryDy=0;" edge="1" parent="1" source="WDk8v4Ak7G_qNKIBwLWD-10" target="WDk8v4Ak7G_qNKIBwLWD-2">
          <mxGeometry width="100" height="100" relative="1" as="geometry">
            <mxPoint x="460" y="150" as="sourcePoint" />
            <mxPoint x="520" y="150" as="targetPoint" />
          </mxGeometry>
        </mxCell>
        <mxCell id="WDk8v4Ak7G_qNKIBwLWD-16" value="(0,n)" style="edgeLabel;html=1;align=center;verticalAlign=middle;resizable=0;points=[];" vertex="1" connectable="0" parent="WDk8v4Ak7G_qNKIBwLWD-15">
          <mxGeometry x="-0.3778" y="4" relative="1" as="geometry">
            <mxPoint x="24" y="-19" as="offset" />
          </mxGeometry>
        </mxCell>
        <mxCell id="WDk8v4Ak7G_qNKIBwLWD-17" value="" style="edgeStyle=entityRelationEdgeStyle;fontSize=12;html=1;endArrow=ERmandOne;startArrow=ERmandOne;rounded=0;entryX=0;entryY=0.5;entryDx=0;entryDy=0;exitX=1;exitY=0.5;exitDx=0;exitDy=0;" edge="1" parent="1" source="WDk8v4Ak7G_qNKIBwLWD-1" target="WDk8v4Ak7G_qNKIBwLWD-9">
          <mxGeometry width="100" height="100" relative="1" as="geometry">
            <mxPoint x="250" y="260" as="sourcePoint" />
            <mxPoint x="350" y="160" as="targetPoint" />
          </mxGeometry>
        </mxCell>
        <mxCell id="WDk8v4Ak7G_qNKIBwLWD-18" value="(1,1)" style="edgeLabel;html=1;align=center;verticalAlign=middle;resizable=0;points=[];" vertex="1" connectable="0" parent="WDk8v4Ak7G_qNKIBwLWD-17">
          <mxGeometry x="0.1222" y="2" relative="1" as="geometry">
            <mxPoint x="-4" y="-8" as="offset" />
          </mxGeometry>
        </mxCell>
        <mxCell id="WDk8v4Ak7G_qNKIBwLWD-19" value="" style="edgeStyle=entityRelationEdgeStyle;fontSize=12;html=1;endArrow=ERmandOne;startArrow=ERmandOne;rounded=0;entryX=0;entryY=0.5;entryDx=0;entryDy=0;exitX=1;exitY=0.5;exitDx=0;exitDy=0;" edge="1" parent="1" source="WDk8v4Ak7G_qNKIBwLWD-10" target="WDk8v4Ak7G_qNKIBwLWD-3">
          <mxGeometry width="100" height="100" relative="1" as="geometry">
            <mxPoint x="780" y="140" as="sourcePoint" />
            <mxPoint x="340" y="150" as="targetPoint" />
            <Array as="points">
              <mxPoint x="460" y="240" />
            </Array>
          </mxGeometry>
        </mxCell>
        <mxCell id="WDk8v4Ak7G_qNKIBwLWD-20" value="(1,1)" style="edgeLabel;html=1;align=center;verticalAlign=middle;resizable=0;points=[];" vertex="1" connectable="0" parent="WDk8v4Ak7G_qNKIBwLWD-19">
          <mxGeometry x="0.1222" y="2" relative="1" as="geometry">
            <mxPoint x="-1" y="-11" as="offset" />
          </mxGeometry>
        </mxCell>
        <mxCell id="WDk8v4Ak7G_qNKIBwLWD-21" value="Utilizado" style="shape=rhombus;perimeter=rhombusPerimeter;whiteSpace=wrap;html=1;align=center;" vertex="1" parent="1">
          <mxGeometry x="320" y="10" width="120" height="60" as="geometry" />
        </mxCell>
        <mxCell id="WDk8v4Ak7G_qNKIBwLWD-22" value="" style="edgeStyle=entityRelationEdgeStyle;fontSize=12;html=1;endArrow=ERmandOne;startArrow=ERmandOne;rounded=0;entryX=0;entryY=0.5;entryDx=0;entryDy=0;exitX=1;exitY=0.5;exitDx=0;exitDy=0;" edge="1" parent="1" source="WDk8v4Ak7G_qNKIBwLWD-6" target="WDk8v4Ak7G_qNKIBwLWD-21">
          <mxGeometry width="100" height="100" relative="1" as="geometry">
            <mxPoint x="280" y="150" as="sourcePoint" />
            <mxPoint x="340" y="150" as="targetPoint" />
          </mxGeometry>
        </mxCell>
        <mxCell id="WDk8v4Ak7G_qNKIBwLWD-23" value="(1,1)" style="edgeLabel;html=1;align=center;verticalAlign=middle;resizable=0;points=[];" vertex="1" connectable="0" parent="WDk8v4Ak7G_qNKIBwLWD-22">
          <mxGeometry x="0.1222" y="2" relative="1" as="geometry">
            <mxPoint x="-4" y="-8" as="offset" />
          </mxGeometry>
        </mxCell>
        <mxCell id="WDk8v4Ak7G_qNKIBwLWD-24" value="" style="edgeStyle=entityRelationEdgeStyle;fontSize=12;html=1;endArrow=ERzeroToMany;endFill=1;rounded=0;exitX=1;exitY=0.5;exitDx=0;exitDy=0;entryX=0;entryY=0.25;entryDx=0;entryDy=0;" edge="1" parent="1" source="WDk8v4Ak7G_qNKIBwLWD-21" target="WDk8v4Ak7G_qNKIBwLWD-2">
          <mxGeometry width="100" height="100" relative="1" as="geometry">
            <mxPoint x="460" y="150" as="sourcePoint" />
            <mxPoint x="510" y="120" as="targetPoint" />
            <Array as="points">
              <mxPoint x="510" y="110" />
            </Array>
          </mxGeometry>
        </mxCell>
        <mxCell id="WDk8v4Ak7G_qNKIBwLWD-25" value="(0,n)" style="edgeLabel;html=1;align=center;verticalAlign=middle;resizable=0;points=[];" vertex="1" connectable="0" parent="WDk8v4Ak7G_qNKIBwLWD-24">
          <mxGeometry x="-0.3778" y="4" relative="1" as="geometry">
            <mxPoint x="-26" y="-26" as="offset" />
          </mxGeometry>
        </mxCell>
        <mxCell id="WDk8v4Ak7G_qNKIBwLWD-26" value="Gerar" style="shape=rhombus;perimeter=rhombusPerimeter;whiteSpace=wrap;html=1;align=center;" vertex="1" parent="1">
          <mxGeometry x="660" y="140" width="120" height="60" as="geometry" />
        </mxCell>
        <mxCell id="WDk8v4Ak7G_qNKIBwLWD-28" value="" style="edgeStyle=entityRelationEdgeStyle;fontSize=12;html=1;endArrow=ERmandOne;startArrow=ERmandOne;rounded=0;entryX=0;entryY=0.5;entryDx=0;entryDy=0;exitX=1;exitY=0.5;exitDx=0;exitDy=0;" edge="1" parent="1" source="WDk8v4Ak7G_qNKIBwLWD-26" target="WDk8v4Ak7G_qNKIBwLWD-7">
          <mxGeometry width="100" height="100" relative="1" as="geometry">
            <mxPoint x="790" y="50" as="sourcePoint" />
            <mxPoint x="860" y="50" as="targetPoint" />
            <Array as="points">
              <mxPoint x="470" y="250" />
            </Array>
          </mxGeometry>
        </mxCell>
        <mxCell id="WDk8v4Ak7G_qNKIBwLWD-29" value="(1,1)" style="edgeLabel;html=1;align=center;verticalAlign=middle;resizable=0;points=[];" vertex="1" connectable="0" parent="WDk8v4Ak7G_qNKIBwLWD-28">
          <mxGeometry x="0.1222" y="2" relative="1" as="geometry">
            <mxPoint x="-1" y="-11" as="offset" />
          </mxGeometry>
        </mxCell>
        <mxCell id="WDk8v4Ak7G_qNKIBwLWD-30" value="Feito" style="shape=rhombus;perimeter=rhombusPerimeter;whiteSpace=wrap;html=1;align=center;" vertex="1" parent="1">
          <mxGeometry x="1030" y="140" width="120" height="60" as="geometry" />
        </mxCell>
        <mxCell id="WDk8v4Ak7G_qNKIBwLWD-31" value="" style="edgeStyle=entityRelationEdgeStyle;fontSize=12;html=1;endArrow=ERmandOne;startArrow=ERmandOne;rounded=0;entryX=0;entryY=0.5;entryDx=0;entryDy=0;exitX=1;exitY=0.75;exitDx=0;exitDy=0;" edge="1" parent="1" source="WDk8v4Ak7G_qNKIBwLWD-2" target="WDk8v4Ak7G_qNKIBwLWD-26">
          <mxGeometry width="100" height="100" relative="1" as="geometry">
            <mxPoint x="790" y="180" as="sourcePoint" />
            <mxPoint x="860" y="180" as="targetPoint" />
            <Array as="points">
              <mxPoint x="480" y="260" />
            </Array>
          </mxGeometry>
        </mxCell>
        <mxCell id="WDk8v4Ak7G_qNKIBwLWD-32" value="(1,1)" style="edgeLabel;html=1;align=center;verticalAlign=middle;resizable=0;points=[];" vertex="1" connectable="0" parent="WDk8v4Ak7G_qNKIBwLWD-31">
          <mxGeometry x="0.1222" y="2" relative="1" as="geometry">
            <mxPoint x="-1" y="-11" as="offset" />
          </mxGeometry>
        </mxCell>
        <mxCell id="WDk8v4Ak7G_qNKIBwLWD-33" value="" style="edgeStyle=entityRelationEdgeStyle;fontSize=12;html=1;endArrow=ERmandOne;startArrow=ERmandOne;rounded=0;entryX=0;entryY=0.5;entryDx=0;entryDy=0;" edge="1" parent="1" target="WDk8v4Ak7G_qNKIBwLWD-4">
          <mxGeometry width="100" height="100" relative="1" as="geometry">
            <mxPoint x="1150" y="170" as="sourcePoint" />
            <mxPoint x="860" y="180" as="targetPoint" />
            <Array as="points">
              <mxPoint x="480" y="260" />
            </Array>
          </mxGeometry>
        </mxCell>
        <mxCell id="WDk8v4Ak7G_qNKIBwLWD-34" value="(1,1)" style="edgeLabel;html=1;align=center;verticalAlign=middle;resizable=0;points=[];" vertex="1" connectable="0" parent="WDk8v4Ak7G_qNKIBwLWD-33">
          <mxGeometry x="0.1222" y="2" relative="1" as="geometry">
            <mxPoint x="-1" y="-11" as="offset" />
          </mxGeometry>
        </mxCell>
        <mxCell id="WDk8v4Ak7G_qNKIBwLWD-35" value="" style="edgeStyle=entityRelationEdgeStyle;fontSize=12;html=1;endArrow=ERzeroToMany;endFill=1;rounded=0;exitX=0;exitY=0.5;exitDx=0;exitDy=0;entryX=1;entryY=0.5;entryDx=0;entryDy=0;" edge="1" parent="1" source="WDk8v4Ak7G_qNKIBwLWD-30" target="WDk8v4Ak7G_qNKIBwLWD-7">
          <mxGeometry width="100" height="100" relative="1" as="geometry">
            <mxPoint x="1020" y="80" as="sourcePoint" />
            <mxPoint x="960" y="130" as="targetPoint" />
          </mxGeometry>
        </mxCell>
        <mxCell id="WDk8v4Ak7G_qNKIBwLWD-36" value="(0,n)" style="edgeLabel;html=1;align=center;verticalAlign=middle;resizable=0;points=[];" vertex="1" connectable="0" parent="WDk8v4Ak7G_qNKIBwLWD-35">
          <mxGeometry x="-0.3778" y="4" relative="1" as="geometry">
            <mxPoint x="-6" y="-19" as="offset" />
          </mxGeometry>
        </mxCell>
        <mxCell id="WDk8v4Ak7G_qNKIBwLWD-38" style="edgeStyle=orthogonalEdgeStyle;rounded=0;orthogonalLoop=1;jettySize=auto;html=1;entryX=0;entryY=0.5;entryDx=0;entryDy=0;" edge="1" parent="1" source="WDk8v4Ak7G_qNKIBwLWD-37" target="WDk8v4Ak7G_qNKIBwLWD-1">
          <mxGeometry relative="1" as="geometry" />
        </mxCell>
        <mxCell id="WDk8v4Ak7G_qNKIBwLWD-37" value="Código" style="ellipse;whiteSpace=wrap;html=1;align=center;fontStyle=4;" vertex="1" parent="1">
          <mxGeometry x="60" y="120" width="50" height="40" as="geometry" />
        </mxCell>
        <mxCell id="WDk8v4Ak7G_qNKIBwLWD-40" style="edgeStyle=orthogonalEdgeStyle;rounded=0;orthogonalLoop=1;jettySize=auto;html=1;entryX=0;entryY=0.75;entryDx=0;entryDy=0;" edge="1" parent="1" source="WDk8v4Ak7G_qNKIBwLWD-39" target="WDk8v4Ak7G_qNKIBwLWD-1">
          <mxGeometry relative="1" as="geometry" />
        </mxCell>
        <mxCell id="WDk8v4Ak7G_qNKIBwLWD-39" value="Nome" style="ellipse;whiteSpace=wrap;html=1;align=center;" vertex="1" parent="1">
          <mxGeometry x="80" y="180" width="50" height="40" as="geometry" />
        </mxCell>
        <mxCell id="WDk8v4Ak7G_qNKIBwLWD-43" style="edgeStyle=orthogonalEdgeStyle;rounded=0;orthogonalLoop=1;jettySize=auto;html=1;entryX=0.25;entryY=1;entryDx=0;entryDy=0;" edge="1" parent="1" source="WDk8v4Ak7G_qNKIBwLWD-41" target="WDk8v4Ak7G_qNKIBwLWD-1">
          <mxGeometry relative="1" as="geometry" />
        </mxCell>
        <mxCell id="WDk8v4Ak7G_qNKIBwLWD-41" value="CPF" style="ellipse;whiteSpace=wrap;html=1;align=center;" vertex="1" parent="1">
          <mxGeometry x="165" y="190" width="50" height="40" as="geometry" />
        </mxCell>
        <mxCell id="WDk8v4Ak7G_qNKIBwLWD-45" style="edgeStyle=orthogonalEdgeStyle;rounded=0;orthogonalLoop=1;jettySize=auto;html=1;entryX=0.5;entryY=1;entryDx=0;entryDy=0;" edge="1" parent="1" source="WDk8v4Ak7G_qNKIBwLWD-44" target="WDk8v4Ak7G_qNKIBwLWD-1">
          <mxGeometry relative="1" as="geometry" />
        </mxCell>
        <mxCell id="WDk8v4Ak7G_qNKIBwLWD-44" value="DtNasc" style="ellipse;whiteSpace=wrap;html=1;align=center;" vertex="1" parent="1">
          <mxGeometry x="230" y="190" width="50" height="40" as="geometry" />
        </mxCell>
        <mxCell id="WDk8v4Ak7G_qNKIBwLWD-47" style="edgeStyle=orthogonalEdgeStyle;rounded=0;orthogonalLoop=1;jettySize=auto;html=1;entryX=1;entryY=0.75;entryDx=0;entryDy=0;" edge="1" parent="1" source="WDk8v4Ak7G_qNKIBwLWD-46" target="WDk8v4Ak7G_qNKIBwLWD-1">
          <mxGeometry relative="1" as="geometry">
            <Array as="points">
              <mxPoint x="310" y="170" />
              <mxPoint x="290" y="170" />
              <mxPoint x="290" y="150" />
            </Array>
          </mxGeometry>
        </mxCell>
        <mxCell id="WDk8v4Ak7G_qNKIBwLWD-46" value="Telefone" style="ellipse;whiteSpace=wrap;html=1;align=center;" vertex="1" parent="1">
          <mxGeometry x="290" y="190" width="50" height="40" as="geometry" />
        </mxCell>
        <mxCell id="WDk8v4Ak7G_qNKIBwLWD-52" style="edgeStyle=orthogonalEdgeStyle;rounded=0;orthogonalLoop=1;jettySize=auto;html=1;entryX=0.5;entryY=0;entryDx=0;entryDy=0;" edge="1" parent="1" source="WDk8v4Ak7G_qNKIBwLWD-48" target="WDk8v4Ak7G_qNKIBwLWD-3">
          <mxGeometry relative="1" as="geometry" />
        </mxCell>
        <mxCell id="WDk8v4Ak7G_qNKIBwLWD-48" value="Nome" style="ellipse;whiteSpace=wrap;html=1;align=center;" vertex="1" parent="1">
          <mxGeometry x="870" y="-70" width="50" height="40" as="geometry" />
        </mxCell>
        <mxCell id="WDk8v4Ak7G_qNKIBwLWD-49" value="Clínica" style="ellipse;whiteSpace=wrap;html=1;align=center;" vertex="1" parent="1">
          <mxGeometry x="940" y="-70" width="50" height="40" as="geometry" />
        </mxCell>
        <mxCell id="WDk8v4Ak7G_qNKIBwLWD-53" style="edgeStyle=orthogonalEdgeStyle;rounded=0;orthogonalLoop=1;jettySize=auto;html=1;entryX=0.847;entryY=-0.058;entryDx=0;entryDy=0;entryPerimeter=0;" edge="1" parent="1" source="WDk8v4Ak7G_qNKIBwLWD-49" target="WDk8v4Ak7G_qNKIBwLWD-3">
          <mxGeometry relative="1" as="geometry" />
        </mxCell>
        <mxCell id="WDk8v4Ak7G_qNKIBwLWD-55" style="edgeStyle=orthogonalEdgeStyle;rounded=0;orthogonalLoop=1;jettySize=auto;html=1;entryX=1;entryY=0.25;entryDx=0;entryDy=0;" edge="1" parent="1" source="WDk8v4Ak7G_qNKIBwLWD-54" target="WDk8v4Ak7G_qNKIBwLWD-3">
          <mxGeometry relative="1" as="geometry" />
        </mxCell>
        <mxCell id="WDk8v4Ak7G_qNKIBwLWD-54" value="CRM" style="ellipse;whiteSpace=wrap;html=1;align=center;fontStyle=4;" vertex="1" parent="1">
          <mxGeometry x="990" y="10" width="50" height="40" as="geometry" />
        </mxCell>
        <mxCell id="WDk8v4Ak7G_qNKIBwLWD-59" style="edgeStyle=orthogonalEdgeStyle;rounded=0;orthogonalLoop=1;jettySize=auto;html=1;" edge="1" parent="1" source="WDk8v4Ak7G_qNKIBwLWD-56" target="WDk8v4Ak7G_qNKIBwLWD-4">
          <mxGeometry relative="1" as="geometry" />
        </mxCell>
        <mxCell id="WDk8v4Ak7G_qNKIBwLWD-56" value="CRM" style="ellipse;whiteSpace=wrap;html=1;align=center;fontStyle=4;" vertex="1" parent="1">
          <mxGeometry x="1210" y="80" width="50" height="40" as="geometry" />
        </mxCell>
        <mxCell id="WDk8v4Ak7G_qNKIBwLWD-60" value="" style="edgeStyle=orthogonalEdgeStyle;rounded=0;orthogonalLoop=1;jettySize=auto;html=1;entryX=0.75;entryY=0;entryDx=0;entryDy=0;" edge="1" parent="1" source="WDk8v4Ak7G_qNKIBwLWD-57" target="WDk8v4Ak7G_qNKIBwLWD-4">
          <mxGeometry relative="1" as="geometry" />
        </mxCell>
        <mxCell id="WDk8v4Ak7G_qNKIBwLWD-57" value="Nome" style="ellipse;whiteSpace=wrap;html=1;align=center;" vertex="1" parent="1">
          <mxGeometry x="1280" y="80" width="50" height="40" as="geometry" />
        </mxCell>
        <mxCell id="WDk8v4Ak7G_qNKIBwLWD-62" style="edgeStyle=orthogonalEdgeStyle;rounded=0;orthogonalLoop=1;jettySize=auto;html=1;entryX=1;entryY=0.5;entryDx=0;entryDy=0;" edge="1" parent="1" source="WDk8v4Ak7G_qNKIBwLWD-58" target="WDk8v4Ak7G_qNKIBwLWD-4">
          <mxGeometry relative="1" as="geometry">
            <mxPoint x="1340" y="170" as="targetPoint" />
          </mxGeometry>
        </mxCell>
        <mxCell id="WDk8v4Ak7G_qNKIBwLWD-58" value="Especial." style="ellipse;whiteSpace=wrap;html=1;align=center;" vertex="1" parent="1">
          <mxGeometry x="1360" y="80" width="50" height="40" as="geometry" />
        </mxCell>
        <mxCell id="WDk8v4Ak7G_qNKIBwLWD-64" value="Número" style="ellipse;whiteSpace=wrap;html=1;align=center;fontStyle=4;" vertex="1" parent="1">
          <mxGeometry x="480" width="50" height="40" as="geometry" />
        </mxCell>
        <mxCell id="WDk8v4Ak7G_qNKIBwLWD-65" style="edgeStyle=orthogonalEdgeStyle;rounded=0;orthogonalLoop=1;jettySize=auto;html=1;entryX=0.113;entryY=-0.042;entryDx=0;entryDy=0;entryPerimeter=0;" edge="1" parent="1" source="WDk8v4Ak7G_qNKIBwLWD-64" target="WDk8v4Ak7G_qNKIBwLWD-2">
          <mxGeometry relative="1" as="geometry" />
        </mxCell>
        <mxCell id="WDk8v4Ak7G_qNKIBwLWD-67" style="edgeStyle=orthogonalEdgeStyle;rounded=0;orthogonalLoop=1;jettySize=auto;html=1;" edge="1" parent="1" source="WDk8v4Ak7G_qNKIBwLWD-66" target="WDk8v4Ak7G_qNKIBwLWD-2">
          <mxGeometry relative="1" as="geometry" />
        </mxCell>
        <mxCell id="WDk8v4Ak7G_qNKIBwLWD-66" value="Data e Hora" style="ellipse;whiteSpace=wrap;html=1;align=center;" vertex="1" parent="1">
          <mxGeometry x="550" width="50" height="40" as="geometry" />
        </mxCell>
        <mxCell id="WDk8v4Ak7G_qNKIBwLWD-69" style="edgeStyle=orthogonalEdgeStyle;rounded=0;orthogonalLoop=1;jettySize=auto;html=1;" edge="1" parent="1" source="WDk8v4Ak7G_qNKIBwLWD-68" target="WDk8v4Ak7G_qNKIBwLWD-6">
          <mxGeometry relative="1" as="geometry" />
        </mxCell>
        <mxCell id="WDk8v4Ak7G_qNKIBwLWD-68" value="Código" style="ellipse;whiteSpace=wrap;html=1;align=center;fontStyle=4;" vertex="1" parent="1">
          <mxGeometry x="40" y="10" width="50" height="40" as="geometry" />
        </mxCell>
        <mxCell id="WDk8v4Ak7G_qNKIBwLWD-70" value="Nome" style="ellipse;whiteSpace=wrap;html=1;align=center;" vertex="1" parent="1">
          <mxGeometry x="80" y="-50" width="50" height="40" as="geometry" />
        </mxCell>
        <mxCell id="WDk8v4Ak7G_qNKIBwLWD-71" style="edgeStyle=orthogonalEdgeStyle;rounded=0;orthogonalLoop=1;jettySize=auto;html=1;entryX=0.187;entryY=0.008;entryDx=0;entryDy=0;entryPerimeter=0;" edge="1" parent="1" source="WDk8v4Ak7G_qNKIBwLWD-70" target="WDk8v4Ak7G_qNKIBwLWD-6">
          <mxGeometry relative="1" as="geometry" />
        </mxCell>
        <mxCell id="WDk8v4Ak7G_qNKIBwLWD-72" value="CNPJ" style="ellipse;whiteSpace=wrap;html=1;align=center;" vertex="1" parent="1">
          <mxGeometry x="180" y="-50" width="50" height="40" as="geometry" />
        </mxCell>
        <mxCell id="WDk8v4Ak7G_qNKIBwLWD-73" style="edgeStyle=orthogonalEdgeStyle;rounded=0;orthogonalLoop=1;jettySize=auto;html=1;entryX=0.68;entryY=0.042;entryDx=0;entryDy=0;entryPerimeter=0;" edge="1" parent="1" source="WDk8v4Ak7G_qNKIBwLWD-72" target="WDk8v4Ak7G_qNKIBwLWD-6">
          <mxGeometry relative="1" as="geometry" />
        </mxCell>
        <mxCell id="WDk8v4Ak7G_qNKIBwLWD-74" value="Código" style="ellipse;whiteSpace=wrap;html=1;align=center;fontStyle=4;" vertex="1" parent="1">
          <mxGeometry x="820" y="220" width="50" height="40" as="geometry" />
        </mxCell>
        <mxCell id="WDk8v4Ak7G_qNKIBwLWD-75" style="edgeStyle=orthogonalEdgeStyle;rounded=0;orthogonalLoop=1;jettySize=auto;html=1;entryX=0.173;entryY=1.108;entryDx=0;entryDy=0;entryPerimeter=0;" edge="1" parent="1" source="WDk8v4Ak7G_qNKIBwLWD-74" target="WDk8v4Ak7G_qNKIBwLWD-7">
          <mxGeometry relative="1" as="geometry">
            <Array as="points">
              <mxPoint x="845" y="210" />
              <mxPoint x="867" y="210" />
            </Array>
          </mxGeometry>
        </mxCell>
        <mxCell id="WDk8v4Ak7G_qNKIBwLWD-77" style="edgeStyle=orthogonalEdgeStyle;rounded=0;orthogonalLoop=1;jettySize=auto;html=1;entryX=0.5;entryY=1;entryDx=0;entryDy=0;" edge="1" parent="1" source="WDk8v4Ak7G_qNKIBwLWD-76" target="WDk8v4Ak7G_qNKIBwLWD-7">
          <mxGeometry relative="1" as="geometry" />
        </mxCell>
        <mxCell id="WDk8v4Ak7G_qNKIBwLWD-76" value="Data" style="ellipse;whiteSpace=wrap;html=1;align=center;" vertex="1" parent="1">
          <mxGeometry x="890" y="220" width="50" height="40" as="geometry" />
        </mxCell>
        <mxCell id="WDk8v4Ak7G_qNKIBwLWD-79" style="edgeStyle=orthogonalEdgeStyle;rounded=0;orthogonalLoop=1;jettySize=auto;html=1;entryX=1;entryY=0.75;entryDx=0;entryDy=0;" edge="1" parent="1" source="WDk8v4Ak7G_qNKIBwLWD-78" target="WDk8v4Ak7G_qNKIBwLWD-7">
          <mxGeometry relative="1" as="geometry">
            <Array as="points">
              <mxPoint x="985" y="200" />
              <mxPoint x="970" y="200" />
              <mxPoint x="970" y="180" />
            </Array>
          </mxGeometry>
        </mxCell>
        <mxCell id="WDk8v4Ak7G_qNKIBwLWD-78" value="Diagnóstico" style="ellipse;whiteSpace=wrap;html=1;align=center;" vertex="1" parent="1">
          <mxGeometry x="960" y="220" width="50" height="40" as="geometry" />
        </mxCell>
        <mxCell id="WDk8v4Ak7G_qNKIBwLWD-80" value="Paciente(codPac,nomePac,cpfPac,dtNascPac,telPac)&lt;div&gt;Exame(numEx,dtHoraEx,crmExt,codConv)&lt;/div&gt;&lt;div&gt;MedicoExterno(crmExt,nomeExt,cliExt)&lt;/div&gt;&lt;div&gt;Convenio(codConv,nomeConv,cnpjConv)&lt;/div&gt;&lt;div&gt;&lt;br&gt;&lt;/div&gt;" style="text;strokeColor=none;fillColor=none;spacingLeft=4;spacingRight=4;overflow=hidden;rotatable=0;points=[[0,0.5],[1,0.5]];portConstraint=eastwest;fontSize=12;whiteSpace=wrap;html=1;" vertex="1" parent="1">
          <mxGeometry x="1030" y="260" width="340" height="110" as="geometry" />
        </mxCell>
      </root>
    </mxGraphModel>
  </diagram>
</mxfile>
